<svg width="22" height="22" viewBox="0 0 22 22" fill="none" xmlns="http://www.w3.org/2000/svg">
<path d="M13.75 0.75H7.75C2.75 0.75 0.75 2.75 0.75 7.75V13.75C0.75 17.53 1.89 19.6 4.61 20.37C4.83 17.77 7.5 15.72 10.75 15.72C14 15.72 16.67 17.77 16.89 20.37C19.61 19.6 20.75 17.53 20.75 13.75V7.75C20.75 2.75 18.75 0.75 13.75 0.75ZM10.75 12.92C8.77 12.92 7.17 11.31 7.17 9.33C7.17 7.35002 8.77 5.75 10.75 5.75C12.73 5.75 14.33 7.35002 14.33 9.33C14.33 11.31 12.73 12.92 10.75 12.92Z" stroke="white" stroke-width="1.5" stroke-linecap="round" stroke-linejoin="round"/>
</svg>
